<svg width="56" height="73" viewBox="0 0 56 73" fill="none" xmlns="http://www.w3.org/2000/svg">
<rect width="5.5" height="5.5" transform="translate(0.560181 6.2195)" fill="#73D13D"/>
<rect width="5.5" height="5.5" transform="translate(0.560181 50.2195)" fill="#120338"/>
<rect width="5.5" height="5.5" transform="translate(0.560181 39.2195)" fill="#120338"/>
<rect width="5.5" height="5.5" transform="translate(0.560181 17.2195)" fill="#FFD8BF"/>
<rect width="5.5" height="5.5" transform="translate(6.06018 28.2195)" fill="#FFD8BF"/>
<rect width="5.5" height="5.5" transform="translate(6.06018 6.2195)" fill="#73D13D"/>
<rect width="5.5" height="5.5" transform="translate(6.06018 50.2195)" fill="#22075E"/>
<rect width="5.5" height="5.5" transform="translate(6.06018 39.2195)" fill="#722ED1"/>
<rect width="5.5" height="5.5" transform="translate(6.06018 17.2195)" fill="#FFD8BF"/>
<rect width="5.5" height="5.5" transform="translate(11.5602 28.2195)" fill="#FFD8BF"/>
<rect width="5.5" height="5.5" transform="translate(11.5602 6.2195)" fill="#73D13D"/>
<rect width="5.5" height="5.5" transform="translate(11.5602 50.2195)" fill="#9254DE"/>
<rect width="5.5" height="5.5" transform="translate(11.5602 39.2195)" fill="#22075E"/>
<rect width="5.5" height="5.5" transform="translate(11.5602 17.2195)" fill="#FFD8BF"/>
<rect width="5.5" height="5.5" transform="translate(11.5602 61.2195)" fill="black"/>
<rect width="5.5" height="5.5" transform="translate(17.0602 28.2195)" fill="#FFD8BF"/>
<rect width="5.5" height="5.5" transform="translate(17.0602 6.2195)" fill="#73D13D"/>
<rect width="5.5" height="5.5" transform="translate(17.0602 50.2195)" fill="#9254DE"/>
<rect width="5.5" height="5.5" transform="translate(17.0602 39.2195)" fill="#722ED1"/>
<rect width="5.5" height="5.5" transform="translate(17.0602 17.2195)" fill="black"/>
<rect width="5.5" height="5.5" transform="translate(17.0602 61.2195)" fill="#22075E"/>
<rect width="5.5" height="5.5" transform="translate(22.5602 28.2195)" fill="#FFD8BF"/>
<rect width="5.5" height="5.5" transform="translate(22.5602 6.2195)" fill="#73D13D"/>
<rect width="5.5" height="5.5" transform="translate(22.5602 50.2195)" fill="#FFD8BF"/>
<rect width="5.5" height="5.5" transform="translate(22.5602 39.2195)" fill="#FFD8BF"/>
<rect width="5.5" height="5.5" transform="translate(22.5602 17.2195)" fill="#FFD8BF"/>
<rect width="5.5" height="5.5" transform="translate(28.0602 28.2195)" fill="#FFD8BF"/>
<rect width="5.5" height="5.5" transform="translate(28.0602 6.2195)" fill="#73D13D"/>
<rect width="5.5" height="5.5" transform="translate(28.0602 50.2195)" fill="#722ED1"/>
<rect width="5.5" height="5.5" transform="translate(28.0602 39.2195)" fill="#FFD8BF"/>
<rect width="5.5" height="5.5" transform="translate(28.0602 17.2195)" fill="#FFD8BF"/>
<rect width="5.5" height="5.5" transform="translate(33.5602 28.2195)" fill="#FFD8BF"/>
<rect width="5.5" height="5.5" transform="translate(33.5602 6.2195)" fill="#73D13D"/>
<rect width="5.5" height="5.5" transform="translate(33.5602 50.2195)" fill="#722ED1"/>
<rect width="5.5" height="5.5" transform="translate(33.5602 39.2195)" fill="#FFD8BF"/>
<rect width="5.5" height="5.5" transform="translate(33.5602 17.2195)" fill="#FFD8BF"/>
<rect width="5.5" height="5.5" transform="translate(33.5602 61.2195)" fill="#22075E"/>
<rect width="5.5" height="5.5" transform="translate(39.0602 28.2195)" fill="#FFD8BF"/>
<rect width="5.5" height="5.5" transform="translate(39.0602 6.2195)" fill="#73D13D"/>
<rect width="5.5" height="5.5" transform="translate(39.0602 50.2195)" fill="#722ED1"/>
<rect width="5.5" height="5.5" transform="translate(39.0602 39.2195)" fill="#722ED1"/>
<rect width="5.5" height="5.5" transform="translate(39.0602 17.2195)" fill="black"/>
<rect width="5.5" height="5.5" transform="translate(39.0602 61.2195)" fill="#22075E"/>
<rect width="5.5" height="5.5" transform="translate(44.5602 28.2195)" fill="#FFD8BF"/>
<rect width="5.5" height="5.5" transform="translate(44.5602 6.2195)" fill="#73D13D"/>
<rect width="5.5" height="5.5" transform="translate(44.5602 50.2195)" fill="#9254DE"/>
<rect width="5.5" height="5.5" transform="translate(44.5602 39.2195)" fill="#722ED1"/>
<rect width="5.5" height="5.5" transform="translate(44.5602 17.2195)" fill="#FFD8BF"/>
<rect width="5.5" height="5.5" transform="translate(50.0602 50.2195)" fill="#FFD8BF"/>
<rect width="5.5" height="5.5" transform="translate(0.560181 11.7195)" fill="#73D13D"/>
<rect width="5.5" height="5.5" transform="translate(0.560181 44.7195)" fill="#120338"/>
<rect width="5.5" height="5.5" transform="translate(0.560181 22.7195)" fill="#FFD8BF"/>
<rect width="5.5" height="5.5" transform="translate(6.06018 33.7195)" fill="#120338"/>
<rect width="5.5" height="5.5" transform="translate(6.06018 11.7195)" fill="#FFD8BF"/>
<rect width="5.5" height="5.5" transform="translate(6.06018 55.7195)" fill="#120338"/>
<rect width="5.5" height="5.5" transform="translate(6.06018 0.719482)" fill="#73D13D"/>
<rect width="5.5" height="5.5" transform="translate(6.06018 44.7195)" fill="#22075E"/>
<rect width="5.5" height="5.5" transform="translate(6.06018 22.7195)" fill="#FFD8BF"/>
<rect width="5.5" height="5.5" transform="translate(11.5602 33.7195)" fill="#722ED1"/>
<rect width="5.5" height="5.5" transform="translate(11.5602 11.7195)" fill="#FFD8BF"/>
<rect width="5.5" height="5.5" transform="translate(11.5602 55.7195)" fill="black"/>
<rect width="5.5" height="5.5" transform="translate(11.5602 0.719482)" fill="#73D13D"/>
<rect width="5.5" height="5.5" transform="translate(11.5602 44.7195)" fill="#9254DE"/>
<rect width="5.5" height="5.5" transform="translate(11.5602 22.7195)" fill="#FFD8BF"/>
<rect width="5.5" height="5.5" transform="translate(11.5602 66.7195)" fill="#AD8B00"/>
<rect width="5.5" height="5.5" transform="translate(17.0602 33.7195)" fill="#FFD8BF"/>
<rect width="5.5" height="5.5" transform="translate(17.0602 11.7195)" fill="#FFD8BF"/>
<rect width="5.5" height="5.5" transform="translate(17.0602 55.7195)" fill="#22075E"/>
<rect width="5.5" height="5.5" transform="translate(17.0602 44.7195)" fill="#22075E"/>
<rect width="5.5" height="5.5" transform="translate(17.0602 22.7195)" fill="black"/>
<rect width="5.5" height="5.5" transform="translate(17.0602 66.7195)" fill="#AD8B00"/>
<rect width="5.5" height="5.5" transform="translate(22.5602 33.7195)" fill="#FFD8BF"/>
<rect width="5.5" height="5.5" transform="translate(22.5602 11.7195)" fill="#FFD8BF"/>
<rect width="5.5" height="5.5" transform="translate(22.5602 55.7195)" fill="#22075E"/>
<rect width="5.5" height="5.5" transform="translate(22.5602 0.719482)" fill="#73D13D"/>
<rect width="5.5" height="5.5" transform="translate(22.5602 44.7195)" fill="#722ED1"/>
<rect width="5.5" height="5.5" transform="translate(22.5602 22.7195)" fill="#FFD8BF"/>
<rect width="5.5" height="5.5" transform="translate(28.0602 33.7195)" fill="#FFBB96"/>
<rect width="5.5" height="5.5" transform="translate(28.0602 11.7195)" fill="#FFD8BF"/>
<rect width="5.5" height="5.5" transform="translate(28.0602 55.7195)" fill="#22075E"/>
<rect width="5.5" height="5.5" transform="translate(28.0602 0.719482)" fill="#73D13D"/>
<rect width="5.5" height="5.5" transform="translate(28.0602 44.7195)" fill="#722ED1"/>
<rect width="5.5" height="5.5" transform="translate(28.0602 22.7195)" fill="#FFD8BF"/>
<rect width="5.5" height="5.5" transform="translate(33.5602 33.7195)" fill="#FFD8BF"/>
<rect width="5.5" height="5.5" transform="translate(33.5602 11.7195)" fill="#FFD8BF"/>
<rect width="5.5" height="5.5" transform="translate(33.5602 55.7195)" fill="#22075E"/>
<rect width="5.5" height="5.5" transform="translate(33.5602 44.7195)" fill="#722ED1"/>
<rect width="5.5" height="5.5" transform="translate(33.5602 22.7195)" fill="#FFD8BF"/>
<rect width="5.5" height="5.5" transform="translate(33.5602 66.7195)" fill="#AD8B00"/>
<rect width="5.5" height="5.5" transform="translate(39.0602 33.7195)" fill="#FFD8BF"/>
<rect width="5.5" height="5.5" transform="translate(39.0602 11.7195)" fill="#FFD8BF"/>
<rect width="5.5" height="5.5" transform="translate(39.0602 55.7195)" fill="#22075E"/>
<rect width="5.5" height="5.5" transform="translate(39.0602 0.719482)" fill="#73D13D"/>
<rect width="5.5" height="5.5" transform="translate(39.0602 44.7195)" fill="#722ED1"/>
<rect width="5.5" height="5.5" transform="translate(39.0602 22.7195)" fill="black"/>
<rect width="5.5" height="5.5" transform="translate(39.0602 66.7195)" fill="#AD8B00"/>
<rect width="5.5" height="5.5" transform="translate(44.5602 11.7195)" fill="#FFD8BF"/>
<rect width="5.5" height="5.5" transform="translate(44.5602 0.719482)" fill="#73D13D"/>
<rect width="5.5" height="5.5" transform="translate(44.5602 44.7195)" fill="#9254DE"/>
<rect width="5.5" height="5.5" transform="translate(44.5602 22.7195)" fill="#FFD8BF"/>
</svg>
