<svg width="56" height="73" viewBox="0 0 56 73" fill="none" xmlns="http://www.w3.org/2000/svg">
<rect width="5.5" height="5.5" transform="translate(0.5 50.4695)" fill="#5C0011"/>
<rect width="5.5" height="5.5" transform="translate(0.5 39.4695)" fill="#5C0011"/>
<rect width="5.5" height="5.5" transform="translate(0.5 17.4695)" fill="#CCCCCC"/>
<rect width="5.5" height="5.5" transform="translate(6 28.4695)" fill="#CCCCCC"/>
<rect width="5.5" height="5.5" transform="translate(6 6.46948)" fill="#CCCCCC"/>
<rect width="5.5" height="5.5" transform="translate(6 50.4695)" fill="#820014"/>
<rect width="5.5" height="5.5" transform="translate(6 39.4695)" fill="#F5222D"/>
<rect width="5.5" height="5.5" transform="translate(6 17.4695)" fill="#CCCCCC"/>
<rect width="5.5" height="5.5" transform="translate(11.5 28.4695)" fill="#CCCCCC"/>
<rect width="5.5" height="5.5" transform="translate(11.5 6.46948)" fill="#CCCCCC"/>
<rect width="5.5" height="5.5" transform="translate(11.5 50.4695)" fill="#FF4D4F"/>
<rect width="5.5" height="5.5" transform="translate(11.5 39.4695)" fill="#820014"/>
<rect width="5.5" height="5.5" transform="translate(11.5 17.4695)" fill="black"/>
<rect width="5.5" height="5.5" transform="translate(11.5 61.4695)" fill="black"/>
<rect width="5.5" height="5.5" transform="translate(17 28.4695)" fill="#CCCCCC"/>
<rect width="5.5" height="5.5" transform="translate(17 6.46948)" fill="#CCCCCC"/>
<rect width="5.5" height="5.5" transform="translate(17 50.4695)" fill="#FF4D4F"/>
<rect width="5.5" height="5.5" transform="translate(17 39.4695)" fill="#F5222D"/>
<rect width="5.5" height="5.5" transform="translate(17 17.4695)" fill="black"/>
<rect width="5.5" height="5.5" transform="translate(17 61.4695)" fill="#820014"/>
<rect width="5.5" height="5.5" transform="translate(22.5 28.4695)" fill="#CCCCCC"/>
<rect width="5.5" height="5.5" transform="translate(22.5 6.46948)" fill="#CCCCCC"/>
<rect width="5.5" height="5.5" transform="translate(22.5 50.4695)" fill="#FFD8BF"/>
<rect width="5.5" height="5.5" transform="translate(22.5 39.4695)" fill="#FFD8BF"/>
<rect width="5.5" height="5.5" transform="translate(22.5 17.4695)" fill="black"/>
<rect width="5.5" height="5.5" transform="translate(28 28.4695)" fill="#CCCCCC"/>
<rect width="5.5" height="5.5" transform="translate(28 6.46948)" fill="#CCCCCC"/>
<rect width="5.5" height="5.5" transform="translate(28 50.4695)" fill="#F5222D"/>
<rect width="5.5" height="5.5" transform="translate(28 39.4695)" fill="#FFD8BF"/>
<rect width="5.5" height="5.5" transform="translate(28 17.4695)" fill="black"/>
<rect width="5.5" height="5.5" transform="translate(33.5 28.4695)" fill="#CCCCCC"/>
<rect width="5.5" height="5.5" transform="translate(33.5 6.46948)" fill="#CCCCCC"/>
<rect width="5.5" height="5.5" transform="translate(33.5 50.4695)" fill="#F5222D"/>
<rect width="5.5" height="5.5" transform="translate(33.5 39.4695)" fill="#FFD8BF"/>
<rect width="5.5" height="5.5" transform="translate(33.5 17.4695)" fill="black"/>
<rect width="5.5" height="5.5" transform="translate(33.5 61.4695)" fill="#820014"/>
<rect width="5.5" height="5.5" transform="translate(39 28.4695)" fill="#CCCCCC"/>
<rect width="5.5" height="5.5" transform="translate(39 6.46948)" fill="#CCCCCC"/>
<rect width="5.5" height="5.5" transform="translate(39 50.4695)" fill="#F5222D"/>
<rect width="5.5" height="5.5" transform="translate(39 39.4695)" fill="#F5222D"/>
<rect width="5.5" height="5.5" transform="translate(39 17.4695)" fill="black"/>
<rect width="5.5" height="5.5" transform="translate(39 61.4695)" fill="#820014"/>
<rect width="5.5" height="5.5" transform="translate(44.5 28.4695)" fill="#CCCCCC"/>
<rect width="5.5" height="5.5" transform="translate(44.5 6.46948)" fill="#B2B2B2"/>
<rect width="5.5" height="5.5" transform="translate(44.5 50.4695)" fill="#FF4D4F"/>
<rect width="5.5" height="5.5" transform="translate(44.5 39.4695)" fill="#F5222D"/>
<rect width="5.5" height="5.5" transform="translate(44.5 17.4695)" fill="black"/>
<rect width="5.5" height="5.5" transform="translate(50 28.4695)" fill="#CCCCCC"/>
<rect width="5.5" height="5.5" transform="translate(50 50.4695)" fill="#FFD8BF"/>
<rect width="5.5" height="5.5" transform="translate(50 17.4695)" fill="#CCCCCC"/>
<rect width="5.5" height="5.5" transform="translate(0.5 11.9695)" fill="#CCCCCC"/>
<rect width="5.5" height="5.5" transform="translate(0.5 44.9695)" fill="#5C0011"/>
<rect width="5.5" height="5.5" transform="translate(0.5 22.9695)" fill="#CCCCCC"/>
<rect width="5.5" height="5.5" transform="translate(6 33.9695)" fill="#5C0011"/>
<rect width="5.5" height="5.5" transform="translate(6 11.9695)" fill="#CCCCCC"/>
<rect width="5.5" height="5.5" transform="translate(6 55.9695)" fill="#5C0011"/>
<rect width="5.5" height="5.5" transform="translate(6 44.9695)" fill="#820014"/>
<rect width="5.5" height="5.5" transform="translate(6 22.9695)" fill="#CCCCCC"/>
<rect width="5.5" height="5.5" transform="translate(11.5 33.9695)" fill="#F5222D"/>
<rect width="5.5" height="5.5" transform="translate(11.5 11.9695)" fill="#CCCCCC"/>
<rect width="5.5" height="5.5" transform="translate(11.5 55.9695)" fill="black"/>
<rect width="5.5" height="5.5" transform="translate(11.5 0.969482)" fill="#CCCCCC"/>
<rect width="5.5" height="5.5" transform="translate(11.5 44.9695)" fill="#FF4D4F"/>
<rect width="5.5" height="5.5" transform="translate(11.5 22.9695)" fill="black"/>
<rect width="5.5" height="5.5" transform="translate(11.5 66.9695)" fill="#08979C"/>
<rect width="5.5" height="5.5" transform="translate(17 33.9695)" fill="#FFD8BF"/>
<rect width="5.5" height="5.5" transform="translate(17 11.9695)" fill="#CCCCCC"/>
<rect width="5.5" height="5.5" transform="translate(17 55.9695)" fill="#820014"/>
<rect width="5.5" height="5.5" transform="translate(17 0.969482)" fill="#CCCCCC"/>
<rect width="5.5" height="5.5" transform="translate(17 44.9695)" fill="#820014"/>
<rect width="5.5" height="5.5" transform="translate(17 22.9695)" fill="black"/>
<rect width="5.5" height="5.5" transform="translate(17 66.9695)" fill="#08979C"/>
<rect width="5.5" height="5.5" transform="translate(22.5 33.9695)" fill="#FFD8BF"/>
<rect width="5.5" height="5.5" transform="translate(22.5 11.9695)" fill="#CCCCCC"/>
<rect width="5.5" height="5.5" transform="translate(22.5 55.9695)" fill="#820014"/>
<rect width="5.5" height="5.5" transform="translate(22.5 0.969482)" fill="#CCCCCC"/>
<rect width="5.5" height="5.5" transform="translate(22.5 44.9695)" fill="#F5222D"/>
<rect width="5.5" height="5.5" transform="translate(22.5 22.9695)" fill="black"/>
<rect width="5.5" height="5.5" transform="translate(28 33.9695)" fill="#FF9C6E"/>
<rect width="5.5" height="5.5" transform="translate(28 11.9695)" fill="#CCCCCC"/>
<rect width="5.5" height="5.5" transform="translate(28 55.9695)" fill="#820014"/>
<rect width="5.5" height="5.5" transform="translate(28 0.969482)" fill="#CCCCCC"/>
<rect width="5.5" height="5.5" transform="translate(28 44.9695)" fill="#F5222D"/>
<rect width="5.5" height="5.5" transform="translate(28 22.9695)" fill="black"/>
<rect width="5.5" height="5.5" transform="translate(33.5 33.9695)" fill="#FFD8BF"/>
<rect width="5.5" height="5.5" transform="translate(33.5 11.9695)" fill="#CCCCCC"/>
<rect width="5.5" height="5.5" transform="translate(33.5 55.9695)" fill="#820014"/>
<rect width="5.5" height="5.5" transform="translate(33.5 0.969482)" fill="#CCCCCC"/>
<rect width="5.5" height="5.5" transform="translate(33.5 44.9695)" fill="#F5222D"/>
<rect width="5.5" height="5.5" transform="translate(33.5 22.9695)" fill="black"/>
<rect width="5.5" height="5.5" transform="translate(33.5 66.9695)" fill="#08979C"/>
<rect width="5.5" height="5.5" transform="translate(39 33.9695)" fill="#FFD8BF"/>
<rect width="5.5" height="5.5" transform="translate(39 11.9695)" fill="#CCCCCC"/>
<rect width="5.5" height="5.5" transform="translate(39 55.9695)" fill="#820014"/>
<rect width="5.5" height="5.5" transform="translate(39 0.969482)" fill="#B2B2B2"/>
<rect width="5.5" height="5.5" transform="translate(39 44.9695)" fill="#F5222D"/>
<rect width="5.5" height="5.5" transform="translate(39 22.9695)" fill="black"/>
<rect width="5.5" height="5.5" transform="translate(39 66.9695)" fill="#08979C"/>
<rect width="5.5" height="5.5" transform="translate(44.5 11.9695)" fill="#CCCCCC"/>
<rect width="5.5" height="5.5" transform="translate(44.5 44.9695)" fill="#FF4D4F"/>
<rect width="5.5" height="5.5" transform="translate(44.5 22.9695)" fill="black"/>
<rect width="5.5" height="5.5" transform="translate(50 11.9695)" fill="#CCCCCC"/>
<rect width="5.5" height="5.5" transform="translate(50 22.9695)" fill="#CCCCCC"/>
</svg>
