<svg width="100" height="100" viewBox="0 0 100 100" fill="none" xmlns="http://www.w3.org/2000/svg">
<path d="M80.8482 60.8065C72.91 66.0897 66.105 72.9174 60.8784 80.875" stroke="#DF52F1" stroke-width="23" stroke-linecap="round"/>
<g filter="url(#filter0_bii)">
<path d="M52.5644 97.6568C59.4976 76.362 76.3354 59.648 97.6302 52.591C99.1159 52.0958 99.8588 50.4863 99.3635 49.1244C99.1159 48.2577 98.4969 47.6387 97.6302 47.3911C76.2116 40.4579 59.4976 23.7439 52.5644 2.32527C52.0692 0.839582 50.4597 0.0967389 49.0978 0.591968C48.2312 0.839582 47.6121 1.45862 47.3645 2.32527C40.3075 23.7439 23.5935 40.4579 2.29869 47.3911C0.813001 47.8863 0.0701581 49.4958 0.565387 50.8577C0.813001 51.7243 1.43204 52.3434 2.29869 52.591C23.5935 59.5242 40.3075 76.2382 47.3645 97.6568C47.8597 99.1425 49.4692 99.8853 50.8311 99.3901C51.5739 99.1425 52.193 98.5235 52.5644 97.6568Z" fill="white" fill-opacity="0.03"/>
</g>
<defs>
<filter id="filter0_bii" x="-35.5874" y="-35.5608" width="171.104" height="171.104" filterUnits="userSpaceOnUse" color-interpolation-filters="sRGB">
<feFlood flood-opacity="0" result="BackgroundImageFix"/>
<feGaussianBlur in="BackgroundImage" stdDeviation="18"/>
<feComposite in2="SourceAlpha" operator="in" result="effect1_backgroundBlur"/>
<feBlend mode="normal" in="SourceGraphic" in2="effect1_backgroundBlur" result="shape"/>
<feColorMatrix in="SourceAlpha" type="matrix" values="0 0 0 0 0 0 0 0 0 0 0 0 0 0 0 0 0 0 127 0" result="hardAlpha"/>
<feOffset dy="4"/>
<feGaussianBlur stdDeviation="2"/>
<feComposite in2="hardAlpha" operator="arithmetic" k2="-1" k3="1"/>
<feColorMatrix type="matrix" values="0 0 0 0 1 0 0 0 0 1 0 0 0 0 1 0 0 0 0.15 0"/>
<feBlend mode="normal" in2="shape" result="effect2_innerShadow"/>
<feColorMatrix in="SourceAlpha" type="matrix" values="0 0 0 0 0 0 0 0 0 0 0 0 0 0 0 0 0 0 127 0" result="hardAlpha"/>
<feOffset/>
<feGaussianBlur stdDeviation="34"/>
<feComposite in2="hardAlpha" operator="arithmetic" k2="-1" k3="1"/>
<feColorMatrix type="matrix" values="0 0 0 0 1 0 0 0 0 1 0 0 0 0 1 0 0 0 0.05 0"/>
<feBlend mode="normal" in2="effect2_innerShadow" result="effect3_innerShadow"/>
</filter>
</defs>
</svg>
