<svg width="55" height="72" viewBox="0 0 55 72" fill="none" xmlns="http://www.w3.org/2000/svg">
<rect width="5.5" height="5.5" transform="translate(0 5.83301)" fill="#FAAD14"/>
<rect width="5.5" height="5.5" transform="translate(0 49.833)" fill="#030852"/>
<rect width="5.5" height="5.5" transform="translate(0 38.833)" fill="#030852"/>
<rect width="5.5" height="5.5" transform="translate(0 16.833)" fill="#FFD8BF"/>
<rect width="5.5" height="5.5" transform="translate(5.5 27.833)" fill="#FFD8BF"/>
<rect width="5.5" height="5.5" transform="translate(5.5 5.83301)" fill="#FFC53D"/>
<rect width="5.5" height="5.5" transform="translate(5.5 49.833)" fill="#061178"/>
<rect width="5.5" height="5.5" transform="translate(5.5 38.833)" fill="#2F54EB"/>
<rect width="5.5" height="5.5" transform="translate(5.5 16.833)" fill="#FFD8BF"/>
<rect width="5.5" height="5.5" transform="translate(11 27.833)" fill="#FFD8BF"/>
<rect width="5.5" height="5.5" transform="translate(11 5.83301)" fill="#FFC53D"/>
<rect width="5.5" height="5.5" transform="translate(11 49.833)" fill="#597EF7"/>
<rect width="5.5" height="5.5" transform="translate(11 38.833)" fill="#061178"/>
<rect width="5.5" height="5.5" transform="translate(11 16.833)" fill="#780650"/>
<rect width="5.5" height="5.5" transform="translate(11 60.833)" fill="black"/>
<rect width="5.5" height="5.5" transform="translate(16.5 27.833)" fill="#FFD8BF"/>
<rect width="5.5" height="5.5" transform="translate(16.5 5.83301)" fill="#FFC53D"/>
<rect width="5.5" height="5.5" transform="translate(16.5 49.833)" fill="#597EF7"/>
<rect width="5.5" height="5.5" transform="translate(16.5 38.833)" fill="#2F54EB"/>
<rect width="5.5" height="5.5" transform="translate(16.5 16.833)" fill="#520339"/>
<rect width="5.5" height="5.5" transform="translate(16.5 60.833)" fill="#061178"/>
<rect width="5.5" height="5.5" transform="translate(22 27.833)" fill="#FFD8BF"/>
<rect width="5.5" height="5.5" transform="translate(22 5.83301)" fill="#FFC53D"/>
<rect width="5.5" height="5.5" transform="translate(22 49.833)" fill="#FFD8BF"/>
<rect width="5.5" height="5.5" transform="translate(22 38.833)" fill="#FFD8BF"/>
<rect width="5.5" height="5.5" transform="translate(22 16.833)" fill="#780650"/>
<rect width="5.5" height="5.5" transform="translate(27.5 27.833)" fill="#FFD8BF"/>
<rect width="5.5" height="5.5" transform="translate(27.5 5.83301)" fill="#FFC53D"/>
<rect width="5.5" height="5.5" transform="translate(27.5 49.833)" fill="#2F54EB"/>
<rect width="5.5" height="5.5" transform="translate(27.5 38.833)" fill="#FFD8BF"/>
<rect width="5.5" height="5.5" transform="translate(27.5 16.833)" fill="#780650"/>
<rect width="5.5" height="5.5" transform="translate(33 27.833)" fill="#FFD8BF"/>
<rect width="5.5" height="5.5" transform="translate(33 5.83301)" fill="#FFC53D"/>
<rect width="5.5" height="5.5" transform="translate(33 49.833)" fill="#2F54EB"/>
<rect width="5.5" height="5.5" transform="translate(33 38.833)" fill="#FFD8BF"/>
<rect width="5.5" height="5.5" transform="translate(33 16.833)" fill="#780650"/>
<rect width="5.5" height="5.5" transform="translate(33 60.833)" fill="#061178"/>
<rect width="5.5" height="5.5" transform="translate(38.5 27.833)" fill="#FFD8BF"/>
<rect width="5.5" height="5.5" transform="translate(38.5 5.83301)" fill="#FFC53D"/>
<rect width="5.5" height="5.5" transform="translate(38.5 49.833)" fill="#2F54EB"/>
<rect width="5.5" height="5.5" transform="translate(38.5 38.833)" fill="#2F54EB"/>
<rect width="5.5" height="5.5" transform="translate(38.5 16.833)" fill="#520339"/>
<rect width="5.5" height="5.5" transform="translate(38.5 60.833)" fill="#061178"/>
<rect width="5.5" height="5.5" transform="translate(44 27.833)" fill="#FFD8BF"/>
<rect width="5.5" height="5.5" transform="translate(44 5.83301)" fill="#FFC53D"/>
<rect width="5.5" height="5.5" transform="translate(44 49.833)" fill="#597EF7"/>
<rect width="5.5" height="5.5" transform="translate(44 38.833)" fill="#2F54EB"/>
<rect width="5.5" height="5.5" transform="translate(44 16.833)" fill="#780650"/>
<rect width="5.5" height="5.5" transform="translate(49.5 49.833)" fill="#FFD8BF"/>
<rect width="5.5" height="5.5" transform="translate(0 11.333)" fill="#3F6600"/>
<rect width="5.5" height="5.5" transform="translate(0 44.333)" fill="#120338"/>
<rect width="5.5" height="5.5" transform="translate(0 22.333)" fill="#FFD8BF"/>
<rect width="5.5" height="5.5" transform="translate(5.5 33.333)" fill="#030852"/>
<rect width="5.5" height="5.5" transform="translate(5.5 11.333)" fill="#3F6600"/>
<rect width="5.5" height="5.5" transform="translate(5.5 55.333)" fill="#030852"/>
<rect width="5.5" height="5.5" transform="translate(5.5 0.333008)" fill="#FAAD14"/>
<rect width="5.5" height="5.5" transform="translate(5.5 44.333)" fill="#061178"/>
<rect width="5.5" height="5.5" transform="translate(5.5 22.333)" fill="#FFD8BF"/>
<rect width="5.5" height="5.5" transform="translate(11 33.333)" fill="#2F54EB"/>
<rect width="5.5" height="5.5" transform="translate(11 11.333)" fill="#3F6600"/>
<rect width="5.5" height="5.5" transform="translate(11 55.333)" fill="black"/>
<rect width="5.5" height="5.5" transform="translate(11 0.333008)" fill="#FFC53D"/>
<rect width="5.5" height="5.5" transform="translate(11 44.333)" fill="#597EF7"/>
<rect width="5.5" height="5.5" transform="translate(11 22.333)" fill="#780650"/>
<rect width="5.5" height="5.5" transform="translate(11 66.333)" fill="#10239E"/>
<rect width="5.5" height="5.5" transform="translate(16.5 33.333)" fill="#FFD8BF"/>
<rect width="5.5" height="5.5" transform="translate(16.5 11.333)" fill="#7CB305"/>
<rect width="5.5" height="5.5" transform="translate(16.5 55.333)" fill="#061178"/>
<rect width="5.5" height="5.5" transform="translate(16.5 0.333008)" fill="#FFC53D"/>
<rect width="5.5" height="5.5" transform="translate(16.5 44.333)" fill="#22075E"/>
<rect width="5.5" height="5.5" transform="translate(16.5 22.333)" fill="#520339"/>
<rect width="5.5" height="5.5" transform="translate(16.5 66.333)" fill="#10239E"/>
<rect width="5.5" height="5.5" transform="translate(22 33.333)" fill="#FFD8BF"/>
<rect width="5.5" height="5.5" transform="translate(22 11.333)" fill="#7CB305"/>
<rect width="5.5" height="5.5" transform="translate(22 55.333)" fill="#061178"/>
<rect width="5.5" height="5.5" transform="translate(22 0.333008)" fill="#FFC53D"/>
<rect width="5.5" height="5.5" transform="translate(22 44.333)" fill="#2F54EB"/>
<rect width="5.5" height="5.5" transform="translate(22 22.333)" fill="#780650"/>
<rect width="5.5" height="5.5" transform="translate(27.5 33.333)" fill="#FFBB96"/>
<rect width="5.5" height="5.5" transform="translate(27.5 11.333)" fill="#7CB305"/>
<rect width="5.5" height="5.5" transform="translate(27.5 55.333)" fill="#061178"/>
<rect width="5.5" height="5.5" transform="translate(27.5 0.333008)" fill="#FFC53D"/>
<rect width="5.5" height="5.5" transform="translate(27.5 44.333)" fill="#2F54EB"/>
<rect width="5.5" height="5.5" transform="translate(27.5 22.333)" fill="#FFD8BF"/>
<rect width="5.5" height="5.5" transform="translate(33 33.333)" fill="#FFD8BF"/>
<rect width="5.5" height="5.5" transform="translate(33 11.333)" fill="#7CB305"/>
<rect width="5.5" height="5.5" transform="translate(33 55.333)" fill="#061178"/>
<rect width="5.5" height="5.5" transform="translate(33 0.333008)" fill="#FFC53D"/>
<rect width="5.5" height="5.5" transform="translate(33 44.333)" fill="#2F54EB"/>
<rect width="5.5" height="5.5" transform="translate(33 22.333)" fill="#780650"/>
<rect width="5.5" height="5.5" transform="translate(33 66.333)" fill="#10239E"/>
<rect width="5.5" height="5.5" transform="translate(38.5 33.333)" fill="#FFD8BF"/>
<rect width="5.5" height="5.5" transform="translate(38.5 11.333)" fill="#7CB305"/>
<rect width="5.5" height="5.5" transform="translate(38.5 55.333)" fill="#061178"/>
<rect width="5.5" height="5.5" transform="translate(38.5 0.333008)" fill="#FFD666"/>
<rect width="5.5" height="5.5" transform="translate(38.5 44.333)" fill="#2F54EB"/>
<rect width="5.5" height="5.5" transform="translate(38.5 22.333)" fill="#520339"/>
<rect width="5.5" height="5.5" transform="translate(38.5 66.333)" fill="#10239E"/>
<rect width="5.5" height="5.5" transform="translate(44 11.333)" fill="#7CB305"/>
<rect width="5.5" height="5.5" transform="translate(44 44.333)" fill="#597EF7"/>
<rect width="5.5" height="5.5" transform="translate(44 22.333)" fill="#780650"/>
</svg>
